ISO-10303-21;
HEADER;
FILE_DESCRIPTION (( 'STEP AP214' ),
    '1' );
FILE_NAME ('Linkage Part.STEP',
    '2026-09-10T12:13:03',
    ( '' ),
    ( '' ),
    'SwSTEP 2.0',
    'SolidWorks 2024',
    '' );
FILE_SCHEMA (( 'AUTOMOTIVE_DESIGN' ));
ENDSEC;

DATA;
#1 = VERTEX_POINT ( 'NONE', #132 ) ;
#2 = FACE_OUTER_BOUND ( 'NONE', #67, .T. ) ;
#3 = ORIENTED_EDGE ( 'NONE', *, *, #158, .F. ) ;
#4 = EDGE_CURVE ( 'NONE', #167, #220, #143, .T. ) ;
#5 = VECTOR ( 'NONE', #253, 1.000000000000000000 ) ;
#6 = APPLICATION_CONTEXT ( 'automotive_design' ) ;
#7 = FACE_BOUND ( 'NONE', #326, .T. ) ;
#8 = EDGE_LOOP ( 'NONE', ( #194, #232 ) ) ;
#9 = AXIS2_PLACEMENT_3D ( 'NONE', #293, #325, #206 ) ;
#10 = ORIENTED_EDGE ( 'NONE', *, *, #39, .F. ) ;
#11 = DIRECTION ( 'NONE',  ( 1.000000000000000000, -2.423644395357048057E-17, 0.000000000000000000 ) ) ;
#12 = VECTOR ( 'NONE', #98, 1.000000000000000000 ) ;
#13 = ORIENTED_EDGE ( 'NONE', *, *, #142, .F. ) ;
#14 = CARTESIAN_POINT ( 'NONE',  ( 0.03000000000000000236, 3.673940397442059960E-18, 0.05000000000000000278 ) ) ;
#15 = ORIENTED_EDGE ( 'NONE', *, *, #76, .T. ) ;
#16 = AXIS2_PLACEMENT_3D ( 'NONE', #110, #52, #365 ) ;
#17 = ORIENTED_EDGE ( 'NONE', *, *, #142, .T. ) ;
#18 = EDGE_CURVE ( 'NONE', #279, #210, #95, .T. ) ;
#19 = LINE ( 'NONE', #102, #12 ) ;
#20 = DIRECTION ( 'NONE',  ( -0.000000000000000000, -0.000000000000000000, -1.000000000000000000 ) ) ;
#21 = UNCERTAINTY_MEASURE_WITH_UNIT (LENGTH_MEASURE( 1.000000000000000082E-05 ), #38, 'distance_accuracy_value', 'NONE');
#22 = PRODUCT_DEFINITION ( 'ๆ', '', #200, #113 ) ;
#23 = CIRCLE ( 'NONE', #28, 0.03000000000000000236 ) ;
#24 = DIRECTION ( 'NONE',  ( 0.000000000000000000, 0.000000000000000000, 1.000000000000000000 ) ) ;
#25 = CARTESIAN_POINT ( 'NONE',  ( 0.5425999999999999712, 0.000000000000000000, 0.05000000000000000278 ) ) ;
#26 = CARTESIAN_POINT ( 'NONE',  ( 0.5725999999999999979, -0.05000000000000000971, 0.05000000000000000278 ) ) ;
#27 = DIRECTION ( 'NONE',  ( 0.000000000000000000, 0.000000000000000000, 1.000000000000000000 ) ) ;
#28 = AXIS2_PLACEMENT_3D ( 'NONE', #284, #338, #114 ) ;
#29 = ADVANCED_FACE ( 'NONE', ( #42 ), #72, .T. ) ;
#30 = UNCERTAINTY_MEASURE_WITH_UNIT (LENGTH_MEASURE( 1.000000000000000082E-05 ), #353, 'distance_accuracy_value', 'NONE');
#31 = DIRECTION ( 'NONE',  ( 1.000000000000000000, 0.000000000000000000, 0.000000000000000000 ) ) ;
#32 = VECTOR ( 'NONE', #83, 1.000000000000000000 ) ;
#33 = DIRECTION ( 'NONE',  ( -1.000000000000000000, -2.423644395357048057E-17, -0.000000000000000000 ) ) ;
#34 = EDGE_CURVE ( 'NONE', #50, #356, #297, .T. ) ;
#35 = ORIENTED_EDGE ( 'NONE', *, *, #85, .T. ) ;
#36 = CARTESIAN_POINT ( 'NONE',  ( 0.5725999999999999979, 0.000000000000000000, 0.05000000000000000278 ) ) ;
#37 = ORIENTED_EDGE ( 'NONE', *, *, #348, .T. ) ;
#38 =( LENGTH_UNIT ( ) NAMED_UNIT ( * ) SI_UNIT ( $, .METRE. ) );
#39 = EDGE_CURVE ( 'NONE', #362, #104, #278, .T. ) ;
#40 = EDGE_LOOP ( 'NONE', ( #360, #218, #92, #60 ) ) ;
#41 = CARTESIAN_POINT ( 'NONE',  ( 0.03000000000000000236, 3.673940397442059960E-18, 0.05000000000000000278 ) ) ;
#42 = FACE_OUTER_BOUND ( 'NONE', #323, .T. ) ;
#43 = PRODUCT_CONTEXT ( 'NONE', #6, 'mechanical' ) ;
#44 = VERTEX_POINT ( 'NONE', #79 ) ;
#45 = ORIENTED_EDGE ( 'NONE', *, *, #76, .F. ) ;
#46 = FACE_OUTER_BOUND ( 'NONE', #305, .T. ) ;
#47 = EDGE_LOOP ( 'NONE', ( #371, #150, #152, #157, #162 ) ) ;
#48 = AXIS2_PLACEMENT_3D ( 'NONE', #243, #335, #329 ) ;
#49 = AXIS2_PLACEMENT_3D ( 'NONE', #178, #184, #120 ) ;
#50 = VERTEX_POINT ( 'NONE', #304 ) ;
#51 = LINE ( 'NONE', #81, #339 ) ;
#52 = DIRECTION ( 'NONE',  ( 0.000000000000000000, 0.000000000000000000, 1.000000000000000000 ) ) ;
#53 = DIRECTION ( 'NONE',  ( -1.000000000000000000, 0.000000000000000000, 0.000000000000000000 ) ) ;
#54 = FACE_OUTER_BOUND ( 'NONE', #40, .T. ) ;
#55 = FACE_BOUND ( 'NONE', #8, .T. ) ;
#56 = AXIS2_PLACEMENT_3D ( 'NONE', #315, #197, #171 ) ;
#57 = DIRECTION ( 'NONE',  ( 1.000000000000000000, 0.000000000000000000, -0.000000000000000000 ) ) ;
#58 = CIRCLE ( 'NONE', #308, 0.04999999999999999584 ) ;
#59 = EDGE_CURVE ( 'NONE', #196, #103, #195, .T. ) ;
#60 = ORIENTED_EDGE ( 'NONE', *, *, #204, .F. ) ;
#61 = EDGE_CURVE ( 'NONE', #1, #279, #311, .T. ) ;
#62 = FACE_BOUND ( 'NONE', #97, .T. ) ;
#63 = ORIENTED_EDGE ( 'NONE', *, *, #18, .T. ) ;
#64 = FACE_OUTER_BOUND ( 'NONE', #302, .T. ) ;
#65 = VERTEX_POINT ( 'NONE', #141 ) ;
#66 = CARTESIAN_POINT ( 'NONE',  ( 0.000000000000000000, -0.04999999999999999584, 0.05000000000000000278 ) ) ;
#67 = EDGE_LOOP ( 'NONE', ( #99, #190, #147, #35 ) ) ;
#68 = EDGE_CURVE ( 'NONE', #183, #196, #51, .T. ) ;
#69 = DIRECTION ( 'NONE',  ( -0.000000000000000000, -0.000000000000000000, -1.000000000000000000 ) ) ;
#70 = ORIENTED_EDGE ( 'NONE', *, *, #344, .F. ) ;
#71 = EDGE_CURVE ( 'NONE', #1, #94, #350, .T. ) ;
#72 = CYLINDRICAL_SURFACE ( 'NONE', #238, 0.04999999999999999584 ) ;
#73 = DIRECTION ( 'NONE',  ( 0.000000000000000000, 0.000000000000000000, 1.000000000000000000 ) ) ;
#74 = AXIS2_PLACEMENT_3D ( 'NONE', #286, #27, #256 ) ;
#75 = LINE ( 'NONE', #272, #109 ) ;
#76 = EDGE_CURVE ( 'NONE', #44, #103, #226, .T. ) ;
#77 = EDGE_LOOP ( 'NONE', ( #296, #307, #345, #10 ) ) ;
#78 = VECTOR ( 'NONE', #299, 1.000000000000000000 ) ;
#79 = CARTESIAN_POINT ( 'NONE',  ( 0.5425999999999999712, 0.000000000000000000, 0.05000000000000000278 ) ) ;
#80 = CARTESIAN_POINT ( 'NONE',  ( 0.6026000000000000245, 3.673940397442069205E-18, 0.000000000000000000 ) ) ;
#81 = CARTESIAN_POINT ( 'NONE',  ( 0.6026000000000000245, 3.673940397442066123E-18, 0.05000000000000000278 ) ) ;
#82 = AXIS2_PLACEMENT_3D ( 'NONE', #135, #130, #223 ) ;
#83 = DIRECTION ( 'NONE',  ( -0.000000000000000000, -0.000000000000000000, -1.000000000000000000 ) ) ;
#84 = DIRECTION ( 'NONE',  ( -0.000000000000000000, -0.000000000000000000, -1.000000000000000000 ) ) ;
#85 = EDGE_CURVE ( 'NONE', #94, #210, #228, .T. ) ;
#86 = DIRECTION ( 'NONE',  ( -1.000000000000000000, 0.000000000000000000, 0.000000000000000000 ) ) ;
#87 = AXIS2_PLACEMENT_3D ( 'NONE', #112, #107, #53 ) ;
#88 = CYLINDRICAL_SURFACE ( 'NONE', #49, 0.03000000000000002665 ) ;
#89 = ORIENTED_EDGE ( 'NONE', *, *, #4, .T. ) ;
#90 = ORIENTED_EDGE ( 'NONE', *, *, #122, .F. ) ;
#91 = SURFACE_SIDE_STYLE ('',( #268 ) ) ;
#92 = ORIENTED_EDGE ( 'NONE', *, *, #340, .T. ) ;
#93 = SURFACE_STYLE_USAGE ( .BOTH. , #91 ) ;
#94 = VERTEX_POINT ( 'NONE', #313 ) ;
#95 = CIRCLE ( 'NONE', #111, 0.05000000000000004441 ) ;
#96 = VECTOR ( 'NONE', #11, 1.000000000000000000 ) ;
#97 = EDGE_LOOP ( 'NONE', ( #70, #359 ) ) ;
#98 = DIRECTION ( 'NONE',  ( 1.000000000000000000, -2.423644395357048057E-17, 0.000000000000000000 ) ) ;
#99 = ORIENTED_EDGE ( 'NONE', *, *, #242, .T. ) ;
#100 = CARTESIAN_POINT ( 'NONE',  ( -0.04999999999999999584, 0.000000000000000000, 0.000000000000000000 ) ) ;
#101 = CARTESIAN_POINT ( 'NONE',  ( 0.5725999999999999979, 0.000000000000000000, 0.000000000000000000 ) ) ;
#102 = CARTESIAN_POINT ( 'NONE',  ( 0.000000000000000000, -0.04999999999999999584, 0.000000000000000000 ) ) ;
#103 = VERTEX_POINT ( 'NONE', #139 ) ;
#104 = VERTEX_POINT ( 'NONE', #173 ) ;
#105 = CIRCLE ( 'NONE', #56, 0.03000000000000002665 ) ;
#106 = DIRECTION ( 'NONE',  ( 0.000000000000000000, 0.000000000000000000, 1.000000000000000000 ) ) ;
#107 = DIRECTION ( 'NONE',  ( -0.000000000000000000, -0.000000000000000000, -1.000000000000000000 ) ) ;
#108 = CYLINDRICAL_SURFACE ( 'NONE', #202, 0.03000000000000002665 ) ;
#109 = VECTOR ( 'NONE', #328, 1.000000000000000000 ) ;
#110 = CARTESIAN_POINT ( 'NONE',  ( 0.5725999999999999979, 0.000000000000000000, 0.05000000000000000278 ) ) ;
#111 = AXIS2_PLACEMENT_3D ( 'NONE', #101, #106, #281 ) ;
#112 = CARTESIAN_POINT ( 'NONE',  ( 0.000000000000000000, 0.000000000000000000, 0.05000000000000000278 ) ) ;
#113 = PRODUCT_DEFINITION_CONTEXT ( 'detailed design', #317, 'design' ) ;
#114 = DIRECTION ( 'NONE',  ( 1.000000000000000000, 0.000000000000000000, 0.000000000000000000 ) ) ;
#115 = ORIENTED_EDGE ( 'NONE', *, *, #148, .T. ) ;
#116 = PLANE ( 'NONE',  #212 ) ;
#117 = ORIENTED_EDGE ( 'NONE', *, *, #314, .F. ) ;
#118 = CARTESIAN_POINT ( 'NONE',  ( 0.000000000000000000, 0.04999999999999999584, 0.05000000000000000278 ) ) ;
#119 = ORIENTED_EDGE ( 'NONE', *, *, #154, .F. ) ;
#120 = DIRECTION ( 'NONE',  ( -1.000000000000000000, 0.000000000000000000, 0.000000000000000000 ) ) ;
#121 = AXIS2_PLACEMENT_3D ( 'NONE', #225, #369, #86 ) ;
#122 = EDGE_CURVE ( 'NONE', #104, #362, #367, .T. ) ;
#123 = DIRECTION ( 'NONE',  ( 0.000000000000000000, 0.000000000000000000, 1.000000000000000000 ) ) ;
#124 = ORIENTED_EDGE ( 'NONE', *, *, #303, .T. ) ;
#125 = DIRECTION ( 'NONE',  ( 0.000000000000000000, 0.000000000000000000, 1.000000000000000000 ) ) ;
#126 = DIRECTION ( 'NONE',  ( -1.000000000000000000, 0.000000000000000000, 0.000000000000000000 ) ) ;
#127 = DIRECTION ( 'NONE',  ( -1.000000000000000000, 0.000000000000000000, 0.000000000000000000 ) ) ;
#128 = ORIENTED_EDGE ( 'NONE', *, *, #133, .F. ) ;
#129 =( NAMED_UNIT ( * ) PLANE_ANGLE_UNIT ( ) SI_UNIT ( $, .RADIAN. ) );
#130 = DIRECTION ( 'NONE',  ( 0.000000000000000000, 0.000000000000000000, 1.000000000000000000 ) ) ;
#131 = AXIS2_PLACEMENT_3D ( 'NONE', #273, #73, #198 ) ;
#132 = CARTESIAN_POINT ( 'NONE',  ( 0.5725999999999999979, -0.05000000000000000971, 0.05000000000000000278 ) ) ;
#133 = EDGE_CURVE ( 'NONE', #294, #237, #23, .T. ) ;
#134 = DIRECTION ( 'NONE',  ( 1.000000000000000000, 0.000000000000000000, 0.000000000000000000 ) ) ;
#135 = CARTESIAN_POINT ( 'NONE',  ( 0.000000000000000000, 0.000000000000000000, 0.000000000000000000 ) ) ;
#136 = STYLED_ITEM ( 'NONE', ( #264 ), #205 ) ;
#137 = ADVANCED_FACE ( 'NONE', ( #54 ), #312, .T. ) ;
#138 = CYLINDRICAL_SURFACE ( 'NONE', #121, 0.03000000000000000236 ) ;
#139 = CARTESIAN_POINT ( 'NONE',  ( 0.5425999999999999712, 0.000000000000000000, 0.000000000000000000 ) ) ;
#140 = CARTESIAN_POINT ( 'NONE',  ( 0.000000000000000000, 0.04999999999999999584, 0.05000000000000000278 ) ) ;
#141 = CARTESIAN_POINT ( 'NONE',  ( 0.000000000000000000, -0.04999999999999999584, 0.000000000000000000 ) ) ;
#142 = EDGE_CURVE ( 'NONE', #237, #294, #156, .T. ) ;
#143 = CIRCLE ( 'NONE', #247, 0.04999999999999999584 ) ;
#144 = CIRCLE ( 'NONE', #274, 0.04999999999999999584 ) ;
#145 = FACE_OUTER_BOUND ( 'NONE', #320, .T. ) ;
#146 = FILL_AREA_STYLE_COLOUR ( '', #301 ) ;
#147 = ORIENTED_EDGE ( 'NONE', *, *, #148, .F. ) ;
#148 = EDGE_CURVE ( 'NONE', #94, #167, #199, .T. ) ;
#149 = DIRECTION ( 'NONE',  ( 1.000000000000000000, 0.000000000000000000, 0.000000000000000000 ) ) ;
#150 = ORIENTED_EDGE ( 'NONE', *, *, #242, .F. ) ;
#151 = DIRECTION ( 'NONE',  ( 0.000000000000000000, 0.000000000000000000, 1.000000000000000000 ) ) ;
#152 = ORIENTED_EDGE ( 'NONE', *, *, #18, .F. ) ;
#153 = CARTESIAN_POINT ( 'NONE',  ( 0.5725999999999999979, 0.05000000000000000971, 0.000000000000000000 ) ) ;
#154 = EDGE_CURVE ( 'NONE', #237, #104, #252, .T. ) ;
#155 = LINE ( 'NONE', #346, #187 ) ;
#156 = CIRCLE ( 'NONE', #235, 0.03000000000000000236 ) ;
#157 = ORIENTED_EDGE ( 'NONE', *, *, #351, .F. ) ;
#158 = EDGE_CURVE ( 'NONE', #103, #196, #105, .T. ) ;
#159 = EDGE_LOOP ( 'NONE', ( #334, #240, #117, #207 ) ) ;
#160 = AXIS2_PLACEMENT_3D ( 'NONE', #36, #151, #233 ) ;
#161 = CARTESIAN_POINT ( 'NONE',  ( 0.03000000000000000236, 3.673940397442059960E-18, 0.000000000000000000 ) ) ;
#162 = ORIENTED_EDGE ( 'NONE', *, *, #340, .F. ) ;
#163 = AXIS2_PLACEMENT_3D ( 'NONE', #164, #221, #127 ) ;
#164 = CARTESIAN_POINT ( 'NONE',  ( 0.5725999999999999979, 0.000000000000000000, 0.05000000000000000278 ) ) ;
#165 = ADVANCED_FACE ( 'NONE', ( #145 ), #108, .F. ) ;
#166 = EDGE_LOOP ( 'NONE', ( #17, #355, #90, #119 ) ) ;
#167 = VERTEX_POINT ( 'NONE', #140 ) ;
#168 = VECTOR ( 'NONE', #310, 1.000000000000000000 ) ;
#169 =( GEOMETRIC_REPRESENTATION_CONTEXT ( 3 ) GLOBAL_UNCERTAINTY_ASSIGNED_CONTEXT ( ( #21 ) ) GLOBAL_UNIT_ASSIGNED_CONTEXT ( ( #38, #261, #181 ) ) REPRESENTATION_CONTEXT ( 'NONE', 'WORKASPACE' ) );
#170 = DIRECTION ( 'NONE',  ( 0.000000000000000000, 0.000000000000000000, 1.000000000000000000 ) ) ;
#171 = DIRECTION ( 'NONE',  ( 1.000000000000000000, 0.000000000000000000, 0.000000000000000000 ) ) ;
#172 = ADVANCED_FACE ( 'NONE', ( #254, #55, #175 ), #176, .F. ) ;
#173 = CARTESIAN_POINT ( 'NONE',  ( -0.03000000000000000236, 0.000000000000000000, 0.000000000000000000 ) ) ;
#174 = DIRECTION ( 'NONE',  ( 1.000000000000000000, 0.000000000000000000, 0.000000000000000000 ) ) ;
#175 = FACE_BOUND ( 'NONE', #234, .T. ) ;
#176 = PLANE ( 'NONE',  #74 ) ;
#177 = FILL_AREA_STYLE ('',( #146 ) ) ;
#178 = CARTESIAN_POINT ( 'NONE',  ( 0.5725999999999999979, 0.000000000000000000, 0.05000000000000000278 ) ) ;
#179 = VERTEX_POINT ( 'NONE', #288 ) ;
#180 = AXIS2_PLACEMENT_3D ( 'NONE', #244, #125, #277 ) ;
#181 =( NAMED_UNIT ( * ) SI_UNIT ( $, .STERADIAN. ) SOLID_ANGLE_UNIT ( ) );
#182 = DIRECTION ( 'NONE',  ( 0.000000000000000000, 0.000000000000000000, 1.000000000000000000 ) ) ;
#183 = VERTEX_POINT ( 'NONE', #259 ) ;
#184 = DIRECTION ( 'NONE',  ( -0.000000000000000000, -0.000000000000000000, -1.000000000000000000 ) ) ;
#185 = ORIENTED_EDGE ( 'NONE', *, *, #227, .F. ) ;
#186 = APPLICATION_PROTOCOL_DEFINITION ( 'draft international standard', 'automotive_design', 1998, #6 ) ;
#187 = VECTOR ( 'NONE', #322, 1.000000000000000000 ) ;
#188 = ORIENTED_EDGE ( 'NONE', *, *, #269, .T. ) ;
#189 = LINE ( 'NONE', #66, #96 ) ;
#190 = ORIENTED_EDGE ( 'NONE', *, *, #348, .F. ) ;
#191 = PRODUCT_DEFINITION_SHAPE ( 'NONE', 'NONE',  #22 ) ;
#192 = ORIENTED_EDGE ( 'NONE', *, *, #344, .T. ) ;
#193 = ADVANCED_FACE ( 'NONE', ( #363 ), #138, .F. ) ;
#194 = ORIENTED_EDGE ( 'NONE', *, *, #122, .T. ) ;
#195 = CIRCLE ( 'NONE', #131, 0.03000000000000002665 ) ;
#196 = VERTEX_POINT ( 'NONE', #80 ) ;
#197 = DIRECTION ( 'NONE',  ( 0.000000000000000000, 0.000000000000000000, 1.000000000000000000 ) ) ;
#198 = DIRECTION ( 'NONE',  ( 1.000000000000000000, 0.000000000000000000, 0.000000000000000000 ) ) ;
#199 = LINE ( 'NONE', #285, #5 ) ;
#200 = PRODUCT_DEFINITION_FORMATION_WITH_SPECIFIED_SOURCE ( 'ไป', '', #282, .NOT_KNOWN. ) ;
#201 = CARTESIAN_POINT ( 'NONE',  ( 0.5725999999999999979, 0.05000000000000000971, 0.05000000000000000278 ) ) ;
#202 = AXIS2_PLACEMENT_3D ( 'NONE', #336, #337, #230 ) ;
#203 = CARTESIAN_POINT ( 'NONE',  ( 0.000000000000000000, 0.04999999999999999584, 0.000000000000000000 ) ) ;
#204 = EDGE_CURVE ( 'NONE', #179, #65, #155, .T. ) ;
#205 = MANIFOLD_SOLID_BREP ( '\X2\51f853f0\X0\-\X2\62c94f38\X0\1', #257 ) ;
#206 = DIRECTION ( 'NONE',  ( -1.000000000000000000, 0.000000000000000000, 0.000000000000000000 ) ) ;
#207 = ORIENTED_EDGE ( 'NONE', *, *, #204, .T. ) ;
#208 = FACE_OUTER_BOUND ( 'NONE', #159, .T. ) ;
#209 = ORIENTED_EDGE ( 'NONE', *, *, #158, .T. ) ;
#210 = VERTEX_POINT ( 'NONE', #153 ) ;
#211 = AXIS2_PLACEMENT_3D ( 'NONE', #283, #24, #31 ) ;
#212 = AXIS2_PLACEMENT_3D ( 'NONE', #349, #231, #295 ) ;
#213 = FACE_OUTER_BOUND ( 'NONE', #77, .T. ) ;
#214 = ORIENTED_EDGE ( 'NONE', *, *, #68, .T. ) ;
#215 = ADVANCED_FACE ( 'NONE', ( #213 ), #316, .F. ) ;
#216 = EDGE_LOOP ( 'NONE', ( #373, #124, #15, #222 ) ) ;
#217 = CARTESIAN_POINT ( 'NONE',  ( 0.000000000000000000, 0.000000000000000000, 0.000000000000000000 ) ) ;
#218 = ORIENTED_EDGE ( 'NONE', *, *, #227, .T. ) ;
#219 = ADVANCED_FACE ( 'NONE', ( #7, #64, #62 ), #236, .T. ) ;
#220 = VERTEX_POINT ( 'NONE', #265 ) ;
#221 = DIRECTION ( 'NONE',  ( -0.000000000000000000, -0.000000000000000000, -1.000000000000000000 ) ) ;
#222 = ORIENTED_EDGE ( 'NONE', *, *, #59, .F. ) ;
#223 = DIRECTION ( 'NONE',  ( 1.000000000000000000, 0.000000000000000000, 0.000000000000000000 ) ) ;
#224 = VECTOR ( 'NONE', #33, 1.000000000000000000 ) ;
#225 = CARTESIAN_POINT ( 'NONE',  ( 0.000000000000000000, 0.000000000000000000, 0.05000000000000000278 ) ) ;
#226 = LINE ( 'NONE', #25, #32 ) ;
#227 = EDGE_CURVE ( 'NONE', #220, #356, #245, .T. ) ;
#228 = LINE ( 'NONE', #201, #168 ) ;
#229 = CARTESIAN_POINT ( 'NONE',  ( 0.000000000000000000, 0.000000000000000000, 0.05000000000000000278 ) ) ;
#230 = DIRECTION ( 'NONE',  ( -1.000000000000000000, 0.000000000000000000, 0.000000000000000000 ) ) ;
#231 = DIRECTION ( 'NONE',  ( 2.423644395357048365E-17, 1.000000000000000000, -0.000000000000000000 ) ) ;
#232 = ORIENTED_EDGE ( 'NONE', *, *, #39, .T. ) ;
#233 = DIRECTION ( 'NONE',  ( 1.000000000000000000, 0.000000000000000000, 0.000000000000000000 ) ) ;
#234 = EDGE_LOOP ( 'NONE', ( #209, #251 ) ) ;
#235 = AXIS2_PLACEMENT_3D ( 'NONE', #229, #342, #174 ) ;
#236 = PLANE ( 'NONE',  #258 ) ;
#237 = VERTEX_POINT ( 'NONE', #239 ) ;
#238 = AXIS2_PLACEMENT_3D ( 'NONE', #276, #20, #126 ) ;
#239 = CARTESIAN_POINT ( 'NONE',  ( -0.03000000000000000236, 0.000000000000000000, 0.05000000000000000278 ) ) ;
#240 = ORIENTED_EDGE ( 'NONE', *, *, #61, .F. ) ;
#241 = LINE ( 'NONE', #14, #321 ) ;
#242 = EDGE_CURVE ( 'NONE', #210, #50, #262, .T. ) ;
#243 = CARTESIAN_POINT ( 'NONE',  ( 0.000000000000000000, 0.000000000000000000, 0.000000000000000000 ) ) ;
#244 = CARTESIAN_POINT ( 'NONE',  ( 0.5725999999999999979, 0.000000000000000000, 0.05000000000000000278 ) ) ;
#245 = LINE ( 'NONE', #291, #78 ) ;
#246 = CYLINDRICAL_SURFACE ( 'NONE', #163, 0.05000000000000004441 ) ;
#247 = AXIS2_PLACEMENT_3D ( 'NONE', #309, #170, #331 ) ;
#248 = ORIENTED_EDGE ( 'NONE', *, *, #71, .T. ) ;
#249 = APPLICATION_PROTOCOL_DEFINITION ( 'draft international standard', 'automotive_design', 1998, #317 ) ;
#250 = ORIENTED_EDGE ( 'NONE', *, *, #71, .F. ) ;
#251 = ORIENTED_EDGE ( 'NONE', *, *, #59, .T. ) ;
#252 = LINE ( 'NONE', #366, #361 ) ;
#253 = DIRECTION ( 'NONE',  ( -1.000000000000000000, -2.423644395357048057E-17, -0.000000000000000000 ) ) ;
#254 = FACE_OUTER_BOUND ( 'NONE', #47, .T. ) ;
#255 = PRODUCT_RELATED_PRODUCT_CATEGORY ( 'part', '', ( #282 ) ) ;
#256 = DIRECTION ( 'NONE',  ( 1.000000000000000000, 0.000000000000000000, -0.000000000000000000 ) ) ;
#257 = CLOSED_SHELL ( 'NONE', ( #165, #193, #137, #219, #172, #29, #300, #368, #267, #215, #289 ) ) ;
#258 = AXIS2_PLACEMENT_3D ( 'NONE', #352, #123, #57 ) ;
#259 = CARTESIAN_POINT ( 'NONE',  ( 0.6026000000000000245, 3.673940397442069205E-18, 0.05000000000000000278 ) ) ;
#260 =( GEOMETRIC_REPRESENTATION_CONTEXT ( 3 ) GLOBAL_UNCERTAINTY_ASSIGNED_CONTEXT ( ( #30 ) ) GLOBAL_UNIT_ASSIGNED_CONTEXT ( ( #353, #129, #330 ) ) REPRESENTATION_CONTEXT ( 'NONE', 'WORKASPACE' ) );
#261 =( NAMED_UNIT ( * ) PLANE_ANGLE_UNIT ( ) SI_UNIT ( $, .RADIAN. ) );
#262 = LINE ( 'NONE', #203, #224 ) ;
#263 = ORIENTED_EDGE ( 'NONE', *, *, #85, .F. ) ;
#264 = PRESENTATION_STYLE_ASSIGNMENT (( #93 ) ) ;
#265 = CARTESIAN_POINT ( 'NONE',  ( -0.04999999999999999584, 0.000000000000000000, 0.05000000000000000278 ) ) ;
#266 = ORIENTED_EDGE ( 'NONE', *, *, #4, .F. ) ;
#267 = ADVANCED_FACE ( 'NONE', ( #2 ), #319, .F. ) ;
#268 = SURFACE_STYLE_FILL_AREA ( #177 ) ;
#269 = EDGE_CURVE ( 'NONE', #220, #179, #58, .T. ) ;
#270 = ORIENTED_EDGE ( 'NONE', *, *, #34, .T. ) ;
#271 = ADVANCED_BREP_SHAPE_REPRESENTATION ( 'Linkage Part', ( #205, #354 ), #260 ) ;
#272 = CARTESIAN_POINT ( 'NONE',  ( 0.000000000000000000, 0.04999999999999999584, 0.05000000000000000278 ) ) ;
#273 = CARTESIAN_POINT ( 'NONE',  ( 0.5725999999999999979, 0.000000000000000000, 0.000000000000000000 ) ) ;
#274 = AXIS2_PLACEMENT_3D ( 'NONE', #217, #275, #306 ) ;
#275 = DIRECTION ( 'NONE',  ( 0.000000000000000000, 0.000000000000000000, 1.000000000000000000 ) ) ;
#276 = CARTESIAN_POINT ( 'NONE',  ( 0.000000000000000000, 0.000000000000000000, 0.05000000000000000278 ) ) ;
#277 = DIRECTION ( 'NONE',  ( 1.000000000000000000, 0.000000000000000000, 0.000000000000000000 ) ) ;
#278 = CIRCLE ( 'NONE', #48, 0.03000000000000000236 ) ;
#279 = VERTEX_POINT ( 'NONE', #298 ) ;
#280 = DIRECTION ( 'NONE',  ( 0.000000000000000000, 0.000000000000000000, 1.000000000000000000 ) ) ;
#281 = DIRECTION ( 'NONE',  ( 1.000000000000000000, 0.000000000000000000, 0.000000000000000000 ) ) ;
#282 = PRODUCT ( 'Linkage Part', 'Linkage Part', '', ( #43 ) ) ;
#283 = CARTESIAN_POINT ( 'NONE',  ( 0.000000000000000000, 0.000000000000000000, 0.000000000000000000 ) ) ;
#284 = CARTESIAN_POINT ( 'NONE',  ( 0.000000000000000000, 0.000000000000000000, 0.05000000000000000278 ) ) ;
#285 = CARTESIAN_POINT ( 'NONE',  ( 0.000000000000000000, 0.04999999999999999584, 0.05000000000000000278 ) ) ;
#286 = CARTESIAN_POINT ( 'NONE',  ( 0.000000000000000000, 0.000000000000000000, 0.000000000000000000 ) ) ;
#287 = PRESENTATION_LAYER_ASSIGNMENT (  '', '', ( #136 ) ) ;
#288 = CARTESIAN_POINT ( 'NONE',  ( 0.000000000000000000, -0.04999999999999999584, 0.05000000000000000278 ) ) ;
#289 = ADVANCED_FACE ( 'NONE', ( #372 ), #88, .F. ) ;
#290 = AXIS2_PLACEMENT_3D ( 'NONE', #118, #370, #343 ) ;
#291 = CARTESIAN_POINT ( 'NONE',  ( -0.04999999999999999584, 0.000000000000000000, 0.05000000000000000278 ) ) ;
#292 = CIRCLE ( 'NONE', #180, 0.03000000000000002665 ) ;
#293 = CARTESIAN_POINT ( 'NONE',  ( 0.000000000000000000, 0.000000000000000000, 0.05000000000000000278 ) ) ;
#294 = VERTEX_POINT ( 'NONE', #41 ) ;
#295 = DIRECTION ( 'NONE',  ( -1.000000000000000000, 2.423644395357048365E-17, 0.000000000000000000 ) ) ;
#296 = ORIENTED_EDGE ( 'NONE', *, *, #357, .F. ) ;
#297 = CIRCLE ( 'NONE', #82, 0.04999999999999999584 ) ;
#298 = CARTESIAN_POINT ( 'NONE',  ( 0.5725999999999999979, -0.05000000000000000971, 0.000000000000000000 ) ) ;
#299 = DIRECTION ( 'NONE',  ( -0.000000000000000000, -0.000000000000000000, -1.000000000000000000 ) ) ;
#300 = ADVANCED_FACE ( 'NONE', ( #208 ), #116, .F. ) ;
#301 = COLOUR_RGB ( '',0.7921568627450980005, 0.8196078431372548767, 0.9333333333333333481 ) ;
#302 = EDGE_LOOP ( 'NONE', ( #89, #188, #347, #248, #115 ) ) ;
#303 = EDGE_CURVE ( 'NONE', #183, #44, #318, .T. ) ;
#304 = CARTESIAN_POINT ( 'NONE',  ( 0.000000000000000000, 0.04999999999999999584, 0.000000000000000000 ) ) ;
#305 = EDGE_LOOP ( 'NONE', ( #63, #263, #250, #332 ) ) ;
#306 = DIRECTION ( 'NONE',  ( 1.000000000000000000, 0.000000000000000000, 0.000000000000000000 ) ) ;
#307 = ORIENTED_EDGE ( 'NONE', *, *, #133, .T. ) ;
#308 = AXIS2_PLACEMENT_3D ( 'NONE', #374, #182, #149 ) ;
#309 = CARTESIAN_POINT ( 'NONE',  ( 0.000000000000000000, 0.000000000000000000, 0.05000000000000000278 ) ) ;
#310 = DIRECTION ( 'NONE',  ( -0.000000000000000000, -0.000000000000000000, -1.000000000000000000 ) ) ;
#311 = LINE ( 'NONE', #26, #324 ) ;
#312 = CYLINDRICAL_SURFACE ( 'NONE', #87, 0.04999999999999999584 ) ;
#313 = CARTESIAN_POINT ( 'NONE',  ( 0.5725999999999999979, 0.05000000000000000971, 0.05000000000000000278 ) ) ;
#314 = EDGE_CURVE ( 'NONE', #179, #1, #189, .T. ) ;
#315 = CARTESIAN_POINT ( 'NONE',  ( 0.5725999999999999979, 0.000000000000000000, 0.000000000000000000 ) ) ;
#316 = CYLINDRICAL_SURFACE ( 'NONE', #9, 0.03000000000000000236 ) ;
#317 = APPLICATION_CONTEXT ( 'automotive_design' ) ;
#318 = CIRCLE ( 'NONE', #160, 0.03000000000000002665 ) ;
#319 = PLANE ( 'NONE',  #290 ) ;
#320 = EDGE_LOOP ( 'NONE', ( #192, #214, #3, #45 ) ) ;
#321 = VECTOR ( 'NONE', #69, 1.000000000000000000 ) ;
#322 = DIRECTION ( 'NONE',  ( -0.000000000000000000, -0.000000000000000000, -1.000000000000000000 ) ) ;
#323 = EDGE_LOOP ( 'NONE', ( #185, #266, #37, #270 ) ) ;
#324 = VECTOR ( 'NONE', #341, 1.000000000000000000 ) ;
#325 = DIRECTION ( 'NONE',  ( -0.000000000000000000, -0.000000000000000000, -1.000000000000000000 ) ) ;
#326 = EDGE_LOOP ( 'NONE', ( #13, #128 ) ) ;
#327 = CARTESIAN_POINT ( 'NONE',  ( 0.000000000000000000, 0.000000000000000000, 0.000000000000000000 ) ) ;
#328 = DIRECTION ( 'NONE',  ( -0.000000000000000000, -0.000000000000000000, -1.000000000000000000 ) ) ;
#329 = DIRECTION ( 'NONE',  ( 1.000000000000000000, 0.000000000000000000, 0.000000000000000000 ) ) ;
#330 =( NAMED_UNIT ( * ) SI_UNIT ( $, .STERADIAN. ) SOLID_ANGLE_UNIT ( ) );
#331 = DIRECTION ( 'NONE',  ( 1.000000000000000000, 0.000000000000000000, 0.000000000000000000 ) ) ;
#332 = ORIENTED_EDGE ( 'NONE', *, *, #61, .T. ) ;
#333 = MECHANICAL_DESIGN_GEOMETRIC_PRESENTATION_REPRESENTATION (  '', ( #136 ), #169 ) ;
#334 = ORIENTED_EDGE ( 'NONE', *, *, #351, .T. ) ;
#335 = DIRECTION ( 'NONE',  ( 0.000000000000000000, 0.000000000000000000, 1.000000000000000000 ) ) ;
#336 = CARTESIAN_POINT ( 'NONE',  ( 0.5725999999999999979, 0.000000000000000000, 0.05000000000000000278 ) ) ;
#337 = DIRECTION ( 'NONE',  ( -0.000000000000000000, -0.000000000000000000, -1.000000000000000000 ) ) ;
#338 = DIRECTION ( 'NONE',  ( 0.000000000000000000, 0.000000000000000000, 1.000000000000000000 ) ) ;
#339 = VECTOR ( 'NONE', #84, 1.000000000000000000 ) ;
#340 = EDGE_CURVE ( 'NONE', #356, #65, #144, .T. ) ;
#341 = DIRECTION ( 'NONE',  ( -0.000000000000000000, -0.000000000000000000, -1.000000000000000000 ) ) ;
#342 = DIRECTION ( 'NONE',  ( 0.000000000000000000, 0.000000000000000000, 1.000000000000000000 ) ) ;
#343 = DIRECTION ( 'NONE',  ( 1.000000000000000000, 2.423644395357048365E-17, 0.000000000000000000 ) ) ;
#344 = EDGE_CURVE ( 'NONE', #44, #183, #292, .T. ) ;
#345 = ORIENTED_EDGE ( 'NONE', *, *, #154, .T. ) ;
#346 = CARTESIAN_POINT ( 'NONE',  ( 0.000000000000000000, -0.04999999999999999584, 0.05000000000000000278 ) ) ;
#347 = ORIENTED_EDGE ( 'NONE', *, *, #314, .T. ) ;
#348 = EDGE_CURVE ( 'NONE', #167, #50, #75, .T. ) ;
#349 = CARTESIAN_POINT ( 'NONE',  ( 0.000000000000000000, -0.04999999999999999584, 0.05000000000000000278 ) ) ;
#350 = CIRCLE ( 'NONE', #16, 0.05000000000000004441 ) ;
#351 = EDGE_CURVE ( 'NONE', #65, #279, #19, .T. ) ;
#352 = CARTESIAN_POINT ( 'NONE',  ( 0.000000000000000000, 0.000000000000000000, 0.05000000000000000278 ) ) ;
#353 =( LENGTH_UNIT ( ) NAMED_UNIT ( * ) SI_UNIT ( $, .METRE. ) );
#354 = AXIS2_PLACEMENT_3D ( 'NONE', #327, #280, #134 ) ;
#355 = ORIENTED_EDGE ( 'NONE', *, *, #357, .T. ) ;
#356 = VERTEX_POINT ( 'NONE', #100 ) ;
#357 = EDGE_CURVE ( 'NONE', #294, #362, #241, .T. ) ;
#358 = SHAPE_DEFINITION_REPRESENTATION ( #191, #271 ) ;
#359 = ORIENTED_EDGE ( 'NONE', *, *, #303, .F. ) ;
#360 = ORIENTED_EDGE ( 'NONE', *, *, #269, .F. ) ;
#361 = VECTOR ( 'NONE', #364, 1.000000000000000000 ) ;
#362 = VERTEX_POINT ( 'NONE', #161 ) ;
#363 = FACE_OUTER_BOUND ( 'NONE', #166, .T. ) ;
#364 = DIRECTION ( 'NONE',  ( -0.000000000000000000, -0.000000000000000000, -1.000000000000000000 ) ) ;
#365 = DIRECTION ( 'NONE',  ( 1.000000000000000000, 0.000000000000000000, 0.000000000000000000 ) ) ;
#366 = CARTESIAN_POINT ( 'NONE',  ( -0.03000000000000000236, 0.000000000000000000, 0.05000000000000000278 ) ) ;
#367 = CIRCLE ( 'NONE', #211, 0.03000000000000000236 ) ;
#368 = ADVANCED_FACE ( 'NONE', ( #46 ), #246, .T. ) ;
#369 = DIRECTION ( 'NONE',  ( -0.000000000000000000, -0.000000000000000000, -1.000000000000000000 ) ) ;
#370 = DIRECTION ( 'NONE',  ( 2.423644395357048365E-17, -1.000000000000000000, 0.000000000000000000 ) ) ;
#371 = ORIENTED_EDGE ( 'NONE', *, *, #34, .F. ) ;
#372 = FACE_OUTER_BOUND ( 'NONE', #216, .T. ) ;
#373 = ORIENTED_EDGE ( 'NONE', *, *, #68, .F. ) ;
#374 = CARTESIAN_POINT ( 'NONE',  ( 0.000000000000000000, 0.000000000000000000, 0.05000000000000000278 ) ) ;
ENDSEC;
END-ISO-10303-21;
